
	<svg width="512" height="512" viewBox="0 0 512 512" style="fill: #898178;" xmlns="http://www.w3.org/2000/svg"><path d="M 152,304c0,57.438, 46.562,104, 104,104s 104-46.562, 104-104s-46.562-104-104-104S 152,246.562, 152,304z M 480,128L 368,128 
c-8-32-16-64-48-64L 192,64 c-32,0-40,32-48,64L 32,128 c-17.6,0-32,14.4-32,32l0,288 c0,17.6, 14.4,32, 32,32l 448,0 c 17.6,0, 32-14.4, 32-32L 512,160 
C 512,142.4, 497.6,128, 480,128z M 256,446c-78.425,0-142-63.574-142-142c0-78.425, 63.575-142, 142-142c 78.426,0, 142,63.575, 142,142
C 398,382.426, 334.427,446, 256,446z M 480,224l-64,0 l0-32 l 64,0 L 480,224 z"></path>
	</svg>
